<svg xmlns="http://www.w3.org/2000/svg" viewBox="0 0 753 71"><g id="black"><rect x="466.11" width="1.02" height="71"/><path d="M24.79,9.27v3.87h16V38.07c0,2.48-.54,3.69-2.2,4.46s-4,.81-7.11.81a18.16,18.16,0,0,0-1.71-4.5c1.93.09,4.18.09,4.86,0s.9-.22.9-.85V35a11.88,11.88,0,0,0-2.39,1.71,16.35,16.35,0,0,1-2.61-5.58,18.81,18.81,0,0,1-3.06,5.58,20.23,20.23,0,0,0-2.7-2v8.64H19.71V35.46A12.25,12.25,0,0,0,18,37a16.59,16.59,0,0,1-2.75-5.76,17.84,17.84,0,0,1-3.37,5.9,15.41,15.41,0,0,0-2.34-1.85v8.1H4.41V13.14h15.3V9.27H2.92V4H42.21V9.27Zm-7.69,11c0,4.64.27,9.23,2.61,13.1V18.14H9.54V34.65c2.34-2.56,3.51-6.43,4.09-10.84H11.29V20.25Zm7.69-2.11V34.65C27,32,28.35,28.17,29,23.81H26.64V20.25h5.89c0,4.95.27,9.77,3,13.77V18.14Z"/><path d="M63.36,31.64c-1,.18-2,.36-3.11.49v1.94h2.34V36.9H60.25v1.8l2.48-.22,0,3.06c-3.24.4-6.34.71-9.13.94l-.36-3.33,3.64-.27v-2H54.49V34.07h2.43V32.4c-.94.05-1.8.05-2.61.05a15.57,15.57,0,0,0-.85-2.79,44.91,44.91,0,0,1-3.33,14,18,18,0,0,0-4.05-2.93C49,34.29,49.19,25,49.19,18.36V4.5H65.56a14.17,14.17,0,0,0-1.17-1.84L69,.9a18.18,18.18,0,0,1,2.34,3.6H87.93V8.6H54v9.72a111.29,111.29,0,0,1-.5,11.2,49.32,49.32,0,0,0,8-1.08Zm4.14,8.64a18.57,18.57,0,0,0,1.8-6.71l3.37,1c-.36,2.79-.85,5.8-2.11,7.65L67.5,40.73v2.83H63.58V27.5H54.45V24.17h2.07V13.86H54.94V10.53H69.25v3.33H67.5ZM60.21,13.86v1.58h3.37V13.86Zm0,5.85h3.37V18.05H60.21Zm3.37,4.46V22.32H60.21v1.85ZM79.51,39.92c.68,0,.86-.32.95-2.88a11.46,11.46,0,0,0,3.28,1.35c-.4,3.86-1.35,4.86-3.69,4.86H77c-3.24,0-4-1-4-4.32V33.57h3.6A18.54,18.54,0,0,0,75,31.68l1.53-.85H68.94V27.27H88.29v3.56H78.7A18.6,18.6,0,0,1,81.9,35l-3.15,1.89a12.31,12.31,0,0,0-1.94-3.11v5.18c0,.9.14,1,.81,1Zm.95-24.8v1.71h6.66v9H69.84v-9H76V15.12H69.61v-3.6H76v-2h4.5v2h6.93v3.6ZM74.7,19.8H73v3H74.7Zm4.59,0H77.44v3h1.85Zm5.94,12.92a24.87,24.87,0,0,1,3.28,7.6L85,41.63A27.55,27.55,0,0,0,81.9,34ZM82,22.77h1.8v-3H82Z"/><path d="M107.37,5c-1.17,3.78-2.66,8.28-3.92,11.79a14.68,14.68,0,0,1,3.29,9.32c0,2.92-.59,4.86-2,5.94a5.46,5.46,0,0,1-2.56,1,15.64,15.64,0,0,1-2.88.09,10.81,10.81,0,0,0-1.17-4.59,14.57,14.57,0,0,0,1.93,0,2,2,0,0,0,1.22-.36c.54-.4.76-1.39.76-2.7a12.76,12.76,0,0,0-3.1-8.23c.9-2.7,1.8-6.35,2.52-9.32h-3.6V43.38H93.15V3.24h9.94l.77-.22Zm21.1,33.35c.68,0,.9-.77,1-5.36a13.17,13.17,0,0,0,4.37,2c-.41,6.16-1.67,7.87-4.82,7.87h-3.1c-4,0-4.86-1.52-4.86-6V27.72h-3c-.68,7.56-2.75,12.78-11.48,15.8a13.85,13.85,0,0,0-3-4.32c7.16-2.21,8.78-5.85,9.32-11.48h-5.4V23H133.2v4.77h-7.07V37c0,1.26.09,1.44.72,1.44ZM110.92,15.62h-3.51V6.75h10.44A32.69,32.69,0,0,0,116,2.48L121.09,1a28.74,28.74,0,0,1,2.57,5.71H133v8.87h-3.55v4h-18.5Zm1.44-4.28V15h15.48V11.34Z"/><path d="M176.76,27.09a94.1,94.1,0,0,1-8.06,5.27,26.08,26.08,0,0,0,10.17,5.4,21.62,21.62,0,0,0-3.51,4.72c-9.31-3.19-14.89-9.72-18.27-19a45.46,45.46,0,0,1-5.8,4.95v7.69L161,33.44a28.47,28.47,0,0,0,.9,4.77C149,42,147,42.66,145.66,43.47a17.18,17.18,0,0,0-2.2-4.72,3.89,3.89,0,0,0,2.25-3.56V31.86a41,41,0,0,1-6.17,2.79,25.51,25.51,0,0,0-3.46-4.32A46.06,46.06,0,0,0,150.43,23H137.65V18.41h17.06V15.89H141.79V11.61h12.92V9.27H139.59V4.73h15.12V1.49h5.4V4.73h15.66V9.27H160.11v2.34H174v4.28h-13.9v2.52H177.3V23H162.18a24.65,24.65,0,0,0,3.46,6.12,56.92,56.92,0,0,0,6.66-5.26Z"/><path d="M188.37,22.23a63,63,0,0,0-7.11-4.14l2.79-4a60.94,60.94,0,0,1,7.24,3.69Zm4.86,6.17c-1.8,4.63-4,9.72-6.12,14l-4.73-3.24a145.12,145.12,0,0,0,6.71-14Zm21.24,6.48A81,81,0,0,1,223,40.05l-4.32,3.2a77.2,77.2,0,0,0-9.45-6.17l3.1-2.2H201.24l4.95,2A45,45,0,0,1,195,43.2a36.57,36.57,0,0,0-4-3.91,32.8,32.8,0,0,0,10.13-4.41h-5.94V18.54H205v-2.2h-7.92v-3h-3.46V6.71l-2.7,3.64a63.49,63.49,0,0,0-7-4.32l3-3.87a53.7,53.7,0,0,1,6.75,3.65V5h11c-.36-1-.77-2.16-1.17-3.06l5.44-.85A24.23,24.23,0,0,1,210.46,5h11.61v8.28h-3.73v3h-8.28v2.2h10.3V34.88Zm-16-25.52v2.75h18.45V9.36Zm1.35,15.53H205V22.46h-5.13Zm0,6H205V28.58h-5.13Zm10.22-8.46v2.43h5.35V22.46Zm5.35,6.12h-5.35v2.34h5.35Z"/><path d="M264.55,24.57a.82.82,0,0,0,.5-.13c.13-.09.22-.36.31-.86a28.07,28.07,0,0,0,.18-3.06,9,9,0,0,0,2.88,1.58,16.51,16.51,0,0,1-.49,4.09,3,3,0,0,1-1.26,1.53,4.16,4.16,0,0,1-2,.45H262.8a3.75,3.75,0,0,1-2.66-.94c-.67-.72-.9-1.53-.9-4.23v-.32l-2,2.61a15.37,15.37,0,0,0-2.52-1.93,16,16,0,0,1-5.58,5.71,12.54,12.54,0,0,0-1.75-1.8v.45c-7.07.5-14.27,1-19.4,1.22l-.22-3c2.16-.09,4.86-.18,7.74-.31V24.08h-5.76V21.47h5.76v-2.3h3.55a6,6,0,0,1-.22-1.93v-.36h-3.11c-.72,2.43-2.56,3.82-6.93,4.59a6.43,6.43,0,0,0-1.75-2.39c3.15-.4,4.63-1,5.31-2.2h-4.32v-2.7h7.47V13H230V10.35h5.49V9.23H240v1.12h5.49V13H240v1.22h7.51v2.7l-5.53,0v.41c0,.67,0,.94.67.94h1.62a10.84,10.84,0,0,0,2.12-.18c0,.77.09,1.58.18,2.39a10.21,10.21,0,0,1-2.21.18h-2.56a4,4,0,0,1-1.8-.32v1.13h5.89v2.61H240v1.3c2.38-.09,4.95-.22,7.42-.36v.32a15.22,15.22,0,0,0,3.74-4.14,35.14,35.14,0,0,0-3.83-1.8l2.3-3c.94.36,1.89.81,2.88,1.26a14,14,0,0,0,.27-1.71h-4.46V12.24h4.59V9.5h4v2.74h6.57V23a4.35,4.35,0,0,0,.09,1.4.4.4,0,0,0,.41.22Zm-37.3,9.18h40.32v3.06h-8.78a41.19,41.19,0,0,1,7.2,4.73l-3.69,2.34a26.23,26.23,0,0,0-2.29-2c-23.85.9-26.78,1-28.89,1.52a27.07,27.07,0,0,0-1.49-3.5,11.08,11.08,0,0,0,3-1,26.41,26.41,0,0,0,4-2.07h-9.36Zm10.21-26.1h-9.85V4h9.85V1.49h5.18V4H247V7.65h-4.32V9.09h-5.18ZM262.35,29.3v3.06H233V29.3Zm-7,9.63a16,16,0,0,0-2.57-1.26l1.49-.86H243.72c-1.44.95-3,1.8-4.41,2.57ZM252.22,7.65h-3.91V4h3.91V1.49h5.27V4h10V7.65h-10V9.09h-5.27ZM256.81,16a18.44,18.44,0,0,1-.58,3.69,18,18,0,0,1,3,2V16Z"/><path d="M313.47,20.48H310V37.31c0,2.52-.36,3.91-2,4.81s-3.73.9-6.7.9a19.39,19.39,0,0,0-1.44-5.17c1.8.09,3.69.09,4.27,0s.77-.13.77-.67V20.48H301V16.92h-6.57V43.34h-4.68V16.92h-5.94v-3.1a43.15,43.15,0,0,1-2.61,4.9v24.8h-4.9v-18c-.86,1-1.76,1.94-2.57,2.7a32.72,32.72,0,0,0-2.92-4.9,35.45,35.45,0,0,0,8.77-12.42l4.23,1.39V12h5.94V1.58h4.68V12h6.75v3.64h12.33ZM283.77,3.2a42.16,42.16,0,0,1-9.36,11,27.33,27.33,0,0,0-2.74-4,29.53,29.53,0,0,0,7.24-8.73Zm4.63,16.15c0,8.55-.49,14.22-4,17.64a10.34,10.34,0,0,0-2.52-3.1c2.52-2.84,2.7-7.2,2.75-14.54Zm10.08-8.19a31.24,31.24,0,0,0-3.42-5.8L298.3,3.6A31.73,31.73,0,0,1,302,9.23Zm1.67,24.57c-3.56,0-4.23-1.35-4.23-5.26V19.4h3.82V30.51c0,1.22,0,1.58.27,1.58h1a5.43,5.43,0,0,0,1.48-.23c.09,1,.23,2.75.36,3.6a4.08,4.08,0,0,1-1.84.27ZM312.84,9.59H302.13V4.86h10.71Z"/><path d="M356.85,3v40.5h-5.22V41.9H323.28v1.57h-4.95V3Zm-5.22,34.56V7.38H323.28V37.53Zm-1.35-20.2v2.92H324.81V17.33h10.26V16h-6.62V8.82h18V16h-6.84v1.35Zm-23.4,4.23H348V36.05h-21.1ZM331,33.08h12.69v-8.6H331Zm1.71-19.76h9.23v-1.8h-9.23Zm.14,12.47H342v6h-9.13Zm2.83,3.73h3.24V28.08h-3.24Z"/><path d="M385,17.46V19h14.4v3.24H385V23.9h17.69v3.73H362.29V23.9h17.33V22.28H365.44V19h14.18V17.46H366.43v-3.1h13.19V12.65H362.34V9h17.28V7.29H366.93V4.19h12.69V1.35H385V4.19h12.56V9h5.13v3.69h-5.13v4.81ZM367.92,29h29.83V43.61h-5.4V42.3H373.09v1.35h-5.17Zm5.17,3.42v1.62h19.26V32.45Zm19.26,6.48V37.17H373.09v1.76ZM385,9h7.25V7.29H385Zm0,5.4h7.25V12.65H385Z"/><path d="M431.1,26v2.7h15.07V43.34h-4.68v-1.4H431.1v1.53h-4.73V14.72h-2.29V7.65l-1.71,3.2c-1.44-.95-4.1-2.34-6.39-3.51-.77.9-1.49,1.75-2.34,2.61h7v3.51h-7.92V10.85a31.19,31.19,0,0,1-4.55,3.69,37.79,37.79,0,0,0-2.07-4.82,25.08,25.08,0,0,0,9-8.82l4.18,1.53c-.22.45-.49.86-.72,1.31,2,.9,4.37,2,5.76,2.83h9.77c-.59-1.21-1.31-2.52-1.89-3.64L436.9,1c.9,1.48,2,3.46,2.66,4.81L438,6.57h9.85v8.15h-3.69V26ZM420,31.55a96.12,96.12,0,0,1,4.28,8.77l-3.83,1.93c-.31-.89-.76-2-1.26-3.19-8,3-9.4,3.6-10.35,4.36a14.08,14.08,0,0,0-1.71-4.4,2.72,2.72,0,0,0,1.81-2.7V15.08h13.85V31.19h-9.31v5.53l4-1.35c-.4-.81-.76-1.57-1.12-2.25ZM413.46,19v2.29h4.63V19Zm4.63,8.41V24.93h-4.63v2.43Zm10.4-16.56v2.84h14.76V10.8Zm11.16,7.07H431.1v3.87h8.55ZM431.1,33.08v4.36h10.39V33.08Z"/><path d="M1.82,51.79H4.34l7.8,11.64h0V51.79H14.1V66H11.66L3.78,54.31h0V66H1.82Z"/><path d="M24.7,53.59H20.14v-1.8h11v1.8H26.62V66H24.7Z"/><path d="M47.08,54.85a4,4,0,0,0-1.52-1.2,4.53,4.53,0,0,0-1.9-.42,5.11,5.11,0,0,0-2.17.45,5,5,0,0,0-1.66,1.23,5.55,5.55,0,0,0-1.07,1.83A6.64,6.64,0,0,0,38.38,59a6.21,6.21,0,0,0,.36,2.12,5.36,5.36,0,0,0,1,1.76,4.79,4.79,0,0,0,1.66,1.2,5.4,5.4,0,0,0,2.22.44A4.45,4.45,0,0,0,45.8,64a4.62,4.62,0,0,0,1.56-1.4L49,63.83a5.89,5.89,0,0,1-1.62,1.45,7.87,7.87,0,0,1-1.59.72,6.72,6.72,0,0,1-2.15.31,6.94,6.94,0,0,1-3-.64A7.42,7.42,0,0,1,36.34,59a8.32,8.32,0,0,1,.54-3,7.05,7.05,0,0,1,1.51-2.4A6.75,6.75,0,0,1,40.72,52a7.89,7.89,0,0,1,3-.56,7.36,7.36,0,0,1,2.75.54,5.09,5.09,0,0,1,2.21,1.66Z"/><path d="M55.3,51.79h1.92v5.88h7.34V51.79h1.92V66H64.56V59.47H57.22V66H55.3Z"/><path d="M86.93,51.79h5a5.79,5.79,0,0,1,2.24.37,3.91,3.91,0,0,1,1.39.94,3.31,3.31,0,0,1,.71,1.28,4.79,4.79,0,0,1,0,2.74,3.31,3.31,0,0,1-.71,1.28,3.91,3.91,0,0,1-1.39.94,5.79,5.79,0,0,1-2.24.37H88.85V66H86.93ZM88.85,58h2.52a6.92,6.92,0,0,0,1.11-.09,3.06,3.06,0,0,0,1-.33,1.9,1.9,0,0,0,.69-.69,2.76,2.76,0,0,0,0-2.34,1.9,1.9,0,0,0-.69-.69,3.06,3.06,0,0,0-1-.33,6.92,6.92,0,0,0-1.11-.09H88.85Z"/><path d="M102.79,51.79h9.14v1.8h-7.22v4.22h6.72v1.8h-6.72v4.54h7.58V66h-9.5Z"/><path d="M119,51.79h5a5.79,5.79,0,0,1,2.24.37,3.91,3.91,0,0,1,1.39.94,3.31,3.31,0,0,1,.71,1.28,5.16,5.16,0,0,1,.2,1.37,3.66,3.66,0,0,1-.24,1.31,3.7,3.7,0,0,1-.69,1.14,3.93,3.93,0,0,1-1.1.86,3.88,3.88,0,0,1-1.45.43l4,6.46h-2.4l-3.6-6.24h-2.14V66H119ZM120.93,58h2.52a6.92,6.92,0,0,0,1.11-.09,3.06,3.06,0,0,0,1-.33,1.9,1.9,0,0,0,.69-.69,2.76,2.76,0,0,0,0-2.34,1.9,1.9,0,0,0-.69-.69,3.06,3.06,0,0,0-1-.33,6.92,6.92,0,0,0-1.11-.09h-2.52Z"/><path d="M135.23,51.79h8.9v1.8h-7V58h6.5v1.8h-6.5V66h-1.92Z"/><path d="M157.21,66.31a7.61,7.61,0,0,1-3-.57,6.79,6.79,0,0,1-2.33-1.57,7.1,7.1,0,0,1-1.52-2.36,8.13,8.13,0,0,1,0-5.88,7.1,7.1,0,0,1,1.52-2.36A6.79,6.79,0,0,1,154.23,52a8.07,8.07,0,0,1,6,0,7,7,0,0,1,2.33,1.57A7.42,7.42,0,0,1,164,55.93a8.13,8.13,0,0,1,0,5.88,7.42,7.42,0,0,1-1.52,2.36,7,7,0,0,1-2.33,1.57A7.64,7.64,0,0,1,157.21,66.31Zm0-1.8a5.15,5.15,0,0,0,3.88-1.66,5.56,5.56,0,0,0,1.08-1.79,6.5,6.5,0,0,0,0-4.38,5.56,5.56,0,0,0-1.08-1.79,5.15,5.15,0,0,0-3.88-1.66,5.18,5.18,0,0,0-2.2.45,5,5,0,0,0-1.68,1.21,5.23,5.23,0,0,0-1.08,1.79,6.5,6.5,0,0,0,0,4.38,5.23,5.23,0,0,0,1.08,1.79A5,5,0,0,0,155,64.06,5.18,5.18,0,0,0,157.21,64.51Z"/><path d="M171.35,51.79h5a5.79,5.79,0,0,1,2.24.37,3.91,3.91,0,0,1,1.39.94,3.31,3.31,0,0,1,.71,1.28,5.16,5.16,0,0,1,.2,1.37,3.66,3.66,0,0,1-.24,1.31,3.7,3.7,0,0,1-.69,1.14,3.93,3.93,0,0,1-1.1.86,3.88,3.88,0,0,1-1.45.43l4,6.46H179l-3.6-6.24h-2.14V66h-1.92ZM173.27,58h2.52a6.92,6.92,0,0,0,1.11-.09,3.06,3.06,0,0,0,1-.33,1.9,1.9,0,0,0,.69-.69,2.76,2.76,0,0,0,0-2.34,1.9,1.9,0,0,0-.69-.69,3.06,3.06,0,0,0-1-.33,6.92,6.92,0,0,0-1.11-.09h-2.52Z"/><path d="M187.43,51.79h2.86l4.5,10.72h.08l4.46-10.72h2.86V66h-1.92V54.31h0L195.45,66h-1.28l-4.78-11.64h0V66h-1.92Z"/><path d="M209.69,51.79h1.92V66h-1.92Z"/><path d="M219.25,51.79h2.52l7.8,11.64h0V51.79h1.92V66h-2.44l-7.88-11.64h0V66h-1.92Z"/><path d="M251.23,58v7a6.8,6.8,0,0,1-1.18.56,12.17,12.17,0,0,1-2.81.66,13.68,13.68,0,0,1-1.37.08,8.13,8.13,0,0,1-3.21-.6,6.89,6.89,0,0,1-3.86-4,8,8,0,0,1-.51-2.85,7.73,7.73,0,0,1,.55-2.94,7.1,7.1,0,0,1,1.52-2.36A6.79,6.79,0,0,1,242.69,52a7.61,7.61,0,0,1,3-.57,8.79,8.79,0,0,1,3.2.49A6,6,0,0,1,251,53.27l-1.36,1.46a5.08,5.08,0,0,0-1.86-1.17,6.44,6.44,0,0,0-2.06-.33,5.18,5.18,0,0,0-2.2.45,5,5,0,0,0-1.68,1.21,5.23,5.23,0,0,0-1.08,1.79,6.15,6.15,0,0,0-.38,2.19,5.86,5.86,0,0,0,.42,2.23,5.42,5.42,0,0,0,1.16,1.79,5.28,5.28,0,0,0,1.74,1.19,5.37,5.37,0,0,0,2.18.43,9.22,9.22,0,0,0,1.93-.19,5.63,5.63,0,0,0,1.55-.55V59.83h-3.14V58Z"/><path d="M276,51.79h1.74L283.77,66h-2.24l-1.42-3.5h-6.74L272,66h-2.24Zm3.44,9-2.64-6.5h0l-2.68,6.5Z"/><path d="M289.61,51.79h5a5.73,5.73,0,0,1,2.24.37,3.82,3.82,0,0,1,1.39.94,3.18,3.18,0,0,1,.71,1.28,4.78,4.78,0,0,1,.2,1.37,3.66,3.66,0,0,1-.24,1.31,3.7,3.7,0,0,1-.69,1.14,3.9,3.9,0,0,1-2.55,1.29l4,6.46h-2.4l-3.6-6.24h-2.14V66h-1.92ZM291.53,58h2.52a6.74,6.74,0,0,0,1.11-.09,2.91,2.91,0,0,0,1-.33,1.76,1.76,0,0,0,.69-.69,2.76,2.76,0,0,0,0-2.34,1.76,1.76,0,0,0-.69-.69,2.91,2.91,0,0,0-1-.33,6.74,6.74,0,0,0-1.11-.09h-2.52Z"/><path d="M308.43,53.59h-4.56v-1.8h11v1.8h-4.56V66h-1.92Z"/><path d="M321.37,63a3.2,3.2,0,0,0,1.33,1.15,3.94,3.94,0,0,0,1.67.37,3.38,3.38,0,0,0,1-.15,2.87,2.87,0,0,0,.91-.45,2.37,2.37,0,0,0,.67-.74,1.89,1.89,0,0,0,.26-1,1.52,1.52,0,0,0-.52-1.25,4.18,4.18,0,0,0-1.29-.72c-.51-.19-1.07-.38-1.68-.56a7.06,7.06,0,0,1-1.68-.75,4.18,4.18,0,0,1-1.29-1.29,4.08,4.08,0,0,1-.52-2.19,3.7,3.7,0,0,1,.27-1.32,3.77,3.77,0,0,1,.85-1.28,4.75,4.75,0,0,1,1.49-1,5.57,5.57,0,0,1,2.19-.39,7.69,7.69,0,0,1,2.22.32,3.78,3.78,0,0,1,1.86,1.3l-1.56,1.42a2.64,2.64,0,0,0-1-.9,3.19,3.19,0,0,0-1.5-.34,3.67,3.67,0,0,0-1.33.21,2.48,2.48,0,0,0-.85.54,2,2,0,0,0-.45.71,2.37,2.37,0,0,0-.13.7,1.81,1.81,0,0,0,.52,1.38,4.11,4.11,0,0,0,1.29.78,16.59,16.59,0,0,0,1.68.54,6.94,6.94,0,0,1,1.68.67,3.78,3.78,0,0,1,1.29,1.16,3.4,3.4,0,0,1,.52,2,4.24,4.24,0,0,1-.39,1.84,4,4,0,0,1-1,1.38,4.72,4.72,0,0,1-1.56.86,6,6,0,0,1-1.92.3,7,7,0,0,1-2.58-.48,4.24,4.24,0,0,1-1.94-1.48Z"/><path d="M348.88,51.79h1.92V64.15h6.5V66h-8.42Z"/><path d="M363.26,51.79h1.92V66h-1.92Z"/><path d="M372.82,51.79h4.92a6.26,6.26,0,0,1,1.71.22,4,4,0,0,1,1.36.65,3,3,0,0,1,.9,1.1,3.52,3.52,0,0,1,.33,1.57,2.91,2.91,0,0,1-.68,2,4,4,0,0,1-1.76,1.13v0a3.07,3.07,0,0,1,1.2.33,3.27,3.27,0,0,1,1,.76,3.71,3.71,0,0,1,.65,1.09,3.67,3.67,0,0,1,.24,1.34,3.54,3.54,0,0,1-.39,1.69,3.61,3.61,0,0,1-1.07,1.23,4.93,4.93,0,0,1-1.58.76,7.11,7.11,0,0,1-1.94.26h-4.86Zm1.92,5.88h2.62a4.76,4.76,0,0,0,1-.11,2.29,2.29,0,0,0,.84-.37,1.82,1.82,0,0,0,.57-.66,2.09,2.09,0,0,0,.21-1,2,2,0,0,0-2.24-2.08h-3Zm0,6.6h2.82a5.83,5.83,0,0,0,1-.09,3,3,0,0,0,1-.36,2.36,2.36,0,0,0,.78-.73,2.12,2.12,0,0,0,.32-1.22A2.23,2.23,0,0,0,379.8,60a3.57,3.57,0,0,0-2.22-.63h-2.84Z"/><path d="M389.42,51.79h5a5.76,5.76,0,0,1,2.24.37,3.82,3.82,0,0,1,1.39.94,3.18,3.18,0,0,1,.71,1.28,5.16,5.16,0,0,1,.2,1.37,3.66,3.66,0,0,1-.24,1.31A3.7,3.7,0,0,1,398,58.2a3.93,3.93,0,0,1-1.1.86,3.83,3.83,0,0,1-1.45.43l4,6.46h-2.4l-3.6-6.24h-2.14V66h-1.92ZM391.34,58h2.52a6.92,6.92,0,0,0,1.11-.09,3,3,0,0,0,1-.33,1.76,1.76,0,0,0,.69-.69,2.76,2.76,0,0,0,0-2.34,1.76,1.76,0,0,0-.69-.69,3,3,0,0,0-1-.33,6.92,6.92,0,0,0-1.11-.09h-2.52Z"/><path d="M410.08,51.79h1.74L417.88,66h-2.24l-1.42-3.5h-6.74l-1.4,3.5h-2.24Zm3.44,9-2.64-6.5h0l-2.68,6.5Z"/><path d="M423.72,51.79h5a5.76,5.76,0,0,1,2.24.37,3.82,3.82,0,0,1,1.39.94,3.18,3.18,0,0,1,.71,1.28,5.16,5.16,0,0,1,.2,1.37,3.66,3.66,0,0,1-.24,1.31,3.7,3.7,0,0,1-.69,1.14,3.93,3.93,0,0,1-1.1.86,3.83,3.83,0,0,1-1.45.43l4,6.46h-2.4l-3.6-6.24h-2.14V66h-1.92ZM425.64,58h2.52a6.92,6.92,0,0,0,1.11-.09,3,3,0,0,0,1-.33,1.76,1.76,0,0,0,.69-.69,2.76,2.76,0,0,0,0-2.34,1.76,1.76,0,0,0-.69-.69,3,3,0,0,0-1-.33,6.92,6.92,0,0,0-1.11-.09h-2.52Z"/><path d="M442.92,59.91l-5.36-8.12H440L443.88,58l4-6.22h2.34l-5.36,8.12v6h-1.92Z"/><path d="M513.34,9.5c2.43,2.38,7.2,3.51,13.28,3.82a17.37,17.37,0,0,0-3,4.28c-5-.63-9-2.07-11.79-4.55-1.71,2-5.45,3.74-13,4.59a15.13,15.13,0,0,0-1.8-2.92H485.13v-4.1h13.59v2.75c8.59-.9,9.72-2.93,9.72-4.59V8.1h-2.7A19.71,19.71,0,0,1,502.59,12a26.17,26.17,0,0,0-4-2.74,18.1,18.1,0,0,0,5.26-8l4.68,1c-.22.68-.49,1.35-.76,2h12.78L521.4,4,525,5.13a39.25,39.25,0,0,1-4.14,7.11l-4.14-1.53a26,26,0,0,0,1.58-2.61h-5V9.5ZM514.56,36c4.14,1.53,8.55,3.33,11.2,4.63L521,43.47a82.8,82.8,0,0,0-11.7-5.31L512,36H499.3l3.92,1.8a58.48,58.48,0,0,1-14,5.85,35.8,35.8,0,0,0-4-3.92A51.5,51.5,0,0,0,497.5,36H491V17.69h30.11V36ZM497.68,7.61H486.16V3.69h11.52ZM496.2,22.82h19.48V20.88H496.2Zm0,4.95h19.48V25.83H496.2Zm0,5h19.48v-2H496.2Z"/><path d="M536.92,22.37c-1.62-1.26-5-3.24-7.29-4.64l3-3.82c2.25,1.12,5.71,3,7.47,4.14Zm3.92,6.16c-1.71,4.82-3.78,10-5.81,14.45l-4.9-2.93a123.7,123.7,0,0,0,6.34-14.44ZM539,10.44c-1.58-1.26-4.95-3.37-7.29-4.81l3.06-3.83c2.29,1.26,5.76,3.2,7.51,4.37Zm23.08,18.27v9.72c0,2.3-.36,3.55-1.93,4.28s-3.65.81-6.39.76a21,21,0,0,0-1.4-4.59c1.58,0,3.38,0,3.92,0s.72-.14.72-.63V28.71h-7.11V12.47h6c.45-1.31.86-2.66,1.13-3.83h-8.69v7.61c0,8-.81,19.84-6.16,27.31a23.41,23.41,0,0,0-4.5-2.88c5-6.93,5.49-17.14,5.49-24.43V3.83h28.08V8.64H558.12l5,.9c-.58,1-1.17,2-1.71,2.93H570V28.71Zm-6.7,3.15a53.77,53.77,0,0,1-5.18,9.27,27.66,27.66,0,0,0-4.18-2.56,35,35,0,0,0,4.63-8.06Zm-.77-13.09h10.4V16.29h-10.4Zm0,6.12h10.4V22.37h-10.4ZM568,30c1.44,2.7,3.42,6.34,4.36,8.55l-5,2.16a87.35,87.35,0,0,0-4-9Z"/><path d="M588.36,25.2c-1.22.45-2.43.95-3.69,1.4V37.44c0,2.48-.41,3.78-1.76,4.68s-3.28,1-6.07,1a20.07,20.07,0,0,0-1.4-5c1.58.09,3.06.09,3.6.09s.72-.18.72-.77V28.31c-1.26.45-2.47.85-3.64,1.26l-1.26-5.13c1.39-.36,3.06-.86,4.9-1.44V14.94h-4.27V10h4.27V1.49h4.91V10h3.06v4.95h-3.06v6.44l2.83-.95Zm18.72,3.38a28.39,28.39,0,0,0,9.85,8.05,23,23,0,0,0-3.64,4.19A33.38,33.38,0,0,1,604.06,32V43.52H598.8v-11a27.16,27.16,0,0,1-9.14,8.59,24.31,24.31,0,0,0-3.42-4.05,24.1,24.1,0,0,0,9.81-8.5h-7.2V23.81h9.95V19.35h5.26v4.46h11.7v4.77ZM600.91,9.32c-.36,6.34-1.93,9.94-10.53,11.79A12.84,12.84,0,0,0,587.77,17c7.11-1.13,8-3.2,8.28-7.65Zm-7.15,3.42h-5V3.56H615.4v8.91h-5.22V8.1H593.76Zm18.94,2.74a13.94,13.94,0,0,0,2.79-.31c.14,1.21.27,3.28.41,4.45a10.5,10.5,0,0,1-3.11.27h-4c-4.64,0-5.72-1.48-5.72-5.94V9.27h4.73V14c0,1.08.13,1.48.9,1.48Z"/><path d="M635.11,35.37a52.34,52.34,0,0,1-10.84,7.56,39.76,39.76,0,0,0-4-3.6,35.85,35.85,0,0,0,10-6Zm9.09-3.51v6.21c0,2.43-.49,3.74-2.43,4.5s-4.41.81-7.65.81a19.64,19.64,0,0,0-1.84-4.9c2.34.09,5,.13,5.8.09s.95-.18.95-.68V32.22c-11.66.81-13.64,1.08-15.12,1.58a39,39,0,0,0-1.26-4.32,25.85,25.85,0,0,0,6.07-1.85c1-.4,3-1.17,5.4-2.25-5.08.36-6.21.54-6.93.81a40.63,40.63,0,0,0-1.35-4.27,10.78,10.78,0,0,0,3.38-1.31A68.81,68.81,0,0,0,636,16.74H625.71V21.6h-5.09V12.29H638V9.59H621.61V5H638V1.49h5.67V5h16.29V9.59H643.62v2.7h17.32V21.6h-5.31V16.74H641.14l1,.86a63,63,0,0,1-7.92,4.45l7.43-.27a71,71,0,0,0,6.66-3.91L652,21a115.69,115.69,0,0,1-15.8,7.65l14-.76c-.9-.86-1.8-1.67-2.61-2.39l3.78-2.34A77.88,77.88,0,0,1,660.45,32l-4.05,2.65a33,33,0,0,0-2.88-3.37Zm6,1.22a89.69,89.69,0,0,1,10.93,6.7l-4.41,3a75.64,75.64,0,0,0-10.62-7.11Z"/><path d="M679.66,32.45a47.83,47.83,0,0,1-9.9,9.31,47.18,47.18,0,0,0-4.68-3.51,31.1,31.1,0,0,0,9.14-7.74Zm9-3.6v8.91c0,2.65-.54,4-2.52,4.85s-4.45.86-7.78.86a19.68,19.68,0,0,0-1.94-5.22c2.3.09,5,.09,5.81.09s1-.18,1-.72V29.3C673,30.11,671,30.42,669.4,31a37,37,0,0,0-1.57-4.82,21.09,21.09,0,0,0,6.25-2.29,64,64,0,0,0,7.11-3.74c-7.2.5-8.73.72-9.76,1.17-.27-1-1-3.55-1.58-4.95a11.58,11.58,0,0,0,3.78-1.48,49.48,49.48,0,0,0,7.2-4.55c-4.32.86-8.68,1.53-12.82,2.07a16.58,16.58,0,0,0-1.49-4.54c10.35-1.4,21.69-3.74,28.58-6.66l4,4.23a86.21,86.21,0,0,1-12.92,3.78l2.43,1.57a79.54,79.54,0,0,1-7.65,5l7.79-.4c1.66-1.17,3.24-2.34,4.77-3.6l4,3.55a94.44,94.44,0,0,1-15.21,9.27l12.69-.85C694,22.68,693,21.6,692,20.61l4.45-2.25a85.91,85.91,0,0,1,8.78,10.13l-4.55,2.74a37.94,37.94,0,0,0-2.29-3.15Zm6.75,1.08a58.34,58.34,0,0,1,10.08,8.23l-4.72,3.15a62,62,0,0,0-9.72-8.55Z"/><path d="M715.17,31.73a51.72,51.72,0,0,1-2,11,18,18,0,0,0-4-1.44c1-2.61,1.53-6.62,1.8-10.22Zm8-2.66c-.09-.63-.23-1.26-.41-2-9,1.57-10.48,2.07-11.52,2.56a31.51,31.51,0,0,0-1.66-4.77c1.21-.31,2.16-1.26,3.51-3a33.37,33.37,0,0,0,2.74-3.55c-3.37.4-4.32.63-5,.94-.27-1-1.08-3.37-1.62-4.72.86-.23,1.62-1.08,2.52-2.43a52.54,52.54,0,0,0,5.27-11l4.77,2.07a72.54,72.54,0,0,1-6.26,11.21l3-.23A71.55,71.55,0,0,0,722,7.38l4.36,2.75a75.27,75.27,0,0,1-9.31,13.81l4.54-.72a26.86,26.86,0,0,0-1.35-3.33l3.6-1.39a38.13,38.13,0,0,1,3.15,9Zm-3.33,1.58a82.07,82.07,0,0,1,1.21,9.27l-4,1a91.16,91.16,0,0,0-.95-9.27Zm4.77-1.31a74.12,74.12,0,0,1,2.25,7.29L723.09,38A57.05,57.05,0,0,0,721,30.56ZM746.31,38c.81,0,.94-.85,1.08-6.12a13.84,13.84,0,0,0,4.5,2c-.45,6.93-1.67,8.87-5,8.87h-3.24c-4.1,0-5-1.58-5-6.3V23l-2.56.31c-.36,9.63-1.58,16.38-8.91,20.38a14.17,14.17,0,0,0-3.24-4.18c5.94-3.06,6.84-8,7.11-15.52a10.51,10.51,0,0,0-3.06.72,47.35,47.35,0,0,0-1.8-5.13c1.08-.32,2-1.4,3.1-3.24a35.3,35.3,0,0,0,2.7-4.68H726.6v-5h7.65c.72-1.75,1.44-3.55,2-5.4l5.81,1.53c-.54,1.31-1.08,2.57-1.67,3.87H751v5h-13.1a81,81,0,0,1-4.27,7.11l9.49-.9c-.72-1.22-1.44-2.39-2.07-3.51l4.32-1.94a60.2,60.2,0,0,1,6.08,11.16l-4.68,2.16a32.23,32.23,0,0,0-1.4-3.51l-1.75.23V36.41c0,1.39.09,1.57.85,1.57Z"/><path d="M484.74,51.79h4.94a9,9,0,0,1,2.63.34,7.1,7.1,0,0,1,2,.91,6,6,0,0,1,1.38,1.31,6.67,6.67,0,0,1,.87,1.52,7.68,7.68,0,0,1,.46,1.56,8.52,8.52,0,0,1,.14,1.44,7.19,7.19,0,0,1-.5,2.63,6.61,6.61,0,0,1-1.48,2.26,7.22,7.22,0,0,1-2.43,1.59,8.71,8.71,0,0,1-3.35.6h-4.62Zm1.92,12.36h2.42a8,8,0,0,0,2.31-.33,5.6,5.6,0,0,0,1.91-1,4.7,4.7,0,0,0,1.3-1.65,5.24,5.24,0,0,0,.48-2.31,6.76,6.76,0,0,0-.22-1.59,4.76,4.76,0,0,0-.83-1.73,4.91,4.91,0,0,0-1.69-1.39,6,6,0,0,0-2.8-.57h-2.88Z"/><path d="M505.54,53.07a1.33,1.33,0,0,1,1.32-1.32,1.29,1.29,0,0,1,.93.39,1.3,1.3,0,0,1,0,1.86,1.29,1.29,0,0,1-.93.39,1.33,1.33,0,0,1-1.32-1.32Zm.42,3.4h1.79V66H506Z"/><path d="M522.05,58.85a2.71,2.71,0,0,0-.79-.67,2.28,2.28,0,0,0-1.15-.27,2.17,2.17,0,0,0-1.11.27.86.86,0,0,0-.47.79.9.9,0,0,0,.27.68,2.22,2.22,0,0,0,.64.42,3.45,3.45,0,0,0,.79.24l.72.14a8.19,8.19,0,0,1,1.09.34,3.06,3.06,0,0,1,.88.52,2.16,2.16,0,0,1,.58.78,2.7,2.7,0,0,1,.21,1.12,2.6,2.6,0,0,1-.34,1.37,2.9,2.9,0,0,1-.88.93,3.77,3.77,0,0,1-1.23.52,5.93,5.93,0,0,1-1.39.16,5.47,5.47,0,0,1-2.07-.36,3.76,3.76,0,0,1-1.59-1.32l1.36-1.12a5.79,5.79,0,0,0,1,.78,2.4,2.4,0,0,0,1.32.34,3.23,3.23,0,0,0,.69-.07,2.27,2.27,0,0,0,.62-.22,1.36,1.36,0,0,0,.44-.38,1,1,0,0,0-.08-1.19,1.94,1.94,0,0,0-.6-.41,4.27,4.27,0,0,0-.74-.24l-.69-.15a11,11,0,0,1-1.1-.32,3.34,3.34,0,0,1-.92-.48,2.15,2.15,0,0,1-.64-.76,2.46,2.46,0,0,1-.24-1.14,2.57,2.57,0,0,1,.31-1.29,2.76,2.76,0,0,1,.82-.91,3.74,3.74,0,0,1,1.16-.54,4.87,4.87,0,0,1,3.15.18,2.91,2.91,0,0,1,1.4,1.2Z"/><path d="M539.07,59A3.91,3.91,0,0,0,538,58.2a3,3,0,0,0-1.31-.27,2.86,2.86,0,0,0-1.29.27,2.58,2.58,0,0,0-.92.74,3.09,3.09,0,0,0-.56,1.08,4.16,4.16,0,0,0-.19,1.27,3.46,3.46,0,0,0,.22,1.25,3,3,0,0,0,.62,1,2.81,2.81,0,0,0,1,.69,3,3,0,0,0,1.26.25,2.9,2.9,0,0,0,1.3-.27,3.32,3.32,0,0,0,1-.79l1.28,1.28a4.08,4.08,0,0,1-1.63,1.12,5.63,5.63,0,0,1-2,.34,5.37,5.37,0,0,1-2-.36,4.66,4.66,0,0,1-1.57-1,4.4,4.4,0,0,1-1-1.56,5.82,5.82,0,0,1,0-4,4.51,4.51,0,0,1,2.57-2.61,5.25,5.25,0,0,1,2-.37,5.4,5.4,0,0,1,2,.37,4.43,4.43,0,0,1,1.65,1.13Z"/><path d="M547.86,61.21a4.84,4.84,0,0,1,.39-1.94,5.07,5.07,0,0,1,1.07-1.58,5.16,5.16,0,0,1,1.6-1.07,5.07,5.07,0,0,1,2-.39,5,5,0,0,1,2,.39,5,5,0,0,1,2.67,2.65,4.84,4.84,0,0,1,.39,1.94,4.92,4.92,0,0,1-.39,1.95,4.8,4.8,0,0,1-1.07,1.58,4.91,4.91,0,0,1-1.6,1.06,5,5,0,0,1-2,.39,5.07,5.07,0,0,1-2-.39,5.13,5.13,0,0,1-1.6-1.06,4.93,4.93,0,0,1-1.46-3.53Zm1.92,0a4.08,4.08,0,0,0,.22,1.33,3.16,3.16,0,0,0,.62,1,3,3,0,0,0,1,.68,3.21,3.21,0,0,0,1.3.25,3.17,3.17,0,0,0,1.3-.25,2.78,2.78,0,0,0,1-.68,2.85,2.85,0,0,0,.62-1,4.13,4.13,0,0,0,0-2.66,2.85,2.85,0,0,0-.62-1,2.78,2.78,0,0,0-1-.68,3.17,3.17,0,0,0-1.3-.25,3.21,3.21,0,0,0-1.3.25,3,3,0,0,0-1,.68,3.16,3.16,0,0,0-.62,1A4.08,4.08,0,0,0,549.78,61.21Z"/><path d="M565.46,56.47h2.08l2.84,7.26,2.72-7.26H575L571.3,66h-2Z"/><path d="M584.35,61.87a2.39,2.39,0,0,0,.27,1.13,2.86,2.86,0,0,0,.71.87,3.37,3.37,0,0,0,1,.56,3.78,3.78,0,0,0,1.2.2,2.68,2.68,0,0,0,1.46-.39,4.41,4.41,0,0,0,1.14-1l1.36,1a5,5,0,0,1-4.2,1.94,5.32,5.32,0,0,1-2-.38,4.39,4.39,0,0,1-1.54-1,4.71,4.71,0,0,1-1-1.58,5.74,5.74,0,0,1-.34-2,5.31,5.31,0,0,1,.37-2,5,5,0,0,1,1-1.58,4.57,4.57,0,0,1,1.56-1,5,5,0,0,1,2-.38,4.73,4.73,0,0,1,2.13.44,4.18,4.18,0,0,1,1.43,1.15,4.33,4.33,0,0,1,.81,1.6,6.53,6.53,0,0,1,.25,1.81v.64ZM590,60.43a3.47,3.47,0,0,0-.19-1.1,2.38,2.38,0,0,0-.51-.87,2.26,2.26,0,0,0-.85-.58,3.09,3.09,0,0,0-1.19-.21,2.85,2.85,0,0,0-1.21.25,3.11,3.11,0,0,0-.93.65,3.07,3.07,0,0,0-.59.89,2.46,2.46,0,0,0-.21,1Z"/><path d="M600.51,56.47h1.8v1.46h0a2.68,2.68,0,0,1,.48-.69,3.13,3.13,0,0,1,.67-.53,3.67,3.67,0,0,1,.81-.35,3,3,0,0,1,.88-.13,2.53,2.53,0,0,1,.8.12l-.08,1.94-.44-.1a2.18,2.18,0,0,0-.44,0,2.67,2.67,0,0,0-2,.74,3.23,3.23,0,0,0-.7,2.3V66h-1.8Z"/><path d="M613.19,56.47h2.08l2.8,7.4h0l2.7-7.4h1.92L618.23,68c-.16.41-.33.79-.5,1.13a3.33,3.33,0,0,1-.62.87,2.51,2.51,0,0,1-.86.56,3.52,3.52,0,0,1-1.25.2,7.34,7.34,0,0,1-.81,0,2.65,2.65,0,0,1-.78-.21l.21-1.64a2.78,2.78,0,0,0,1.08.22,2,2,0,0,0,.7-.11,1.3,1.3,0,0,0,.5-.32,1.75,1.75,0,0,0,.35-.49c.09-.19.18-.4.28-.64l.58-1.5Z"/><path d="M657.94,63a3.2,3.2,0,0,0,1.33,1.15,3.94,3.94,0,0,0,1.67.37,3.38,3.38,0,0,0,1-.15,3,3,0,0,0,.91-.45,2.49,2.49,0,0,0,.67-.74,2,2,0,0,0,.26-1,1.52,1.52,0,0,0-.52-1.25,4.42,4.42,0,0,0-1.29-.72c-.51-.19-1.07-.38-1.68-.56a6.72,6.72,0,0,1-1.68-.75,4.18,4.18,0,0,1-1.29-1.29,4,4,0,0,1-.52-2.19,3.7,3.7,0,0,1,.27-1.32,3.63,3.63,0,0,1,.85-1.28,4.63,4.63,0,0,1,1.49-1,5.57,5.57,0,0,1,2.19-.39,7.79,7.79,0,0,1,2.22.32,3.78,3.78,0,0,1,1.86,1.3l-1.56,1.42a2.64,2.64,0,0,0-1-.9,3.19,3.19,0,0,0-1.5-.34,3.64,3.64,0,0,0-1.33.21,2.39,2.39,0,0,0-.85.54,2,2,0,0,0-.45.71,2.09,2.09,0,0,0-.13.7,1.77,1.77,0,0,0,.52,1.38,4.11,4.11,0,0,0,1.29.78,15.11,15.11,0,0,0,1.68.54,6.94,6.94,0,0,1,1.68.67,4,4,0,0,1,1.29,1.16,3.4,3.4,0,0,1,.52,2,4.24,4.24,0,0,1-.39,1.84,4,4,0,0,1-1,1.38,4.72,4.72,0,0,1-1.56.86,6,6,0,0,1-1.92.3,7,7,0,0,1-2.58-.48,4.24,4.24,0,0,1-1.94-1.48Z"/><path d="M673.46,56.47h2.08l2.8,7.4h0l2.7-7.4H683L678.5,68c-.16.41-.33.79-.5,1.13a3.33,3.33,0,0,1-.62.87,2.46,2.46,0,0,1-.87.56,3.43,3.43,0,0,1-1.24.2,7.34,7.34,0,0,1-.81,0,2.65,2.65,0,0,1-.78-.21l.21-1.64a2.78,2.78,0,0,0,1.08.22,2,2,0,0,0,.7-.11,1.3,1.3,0,0,0,.5-.32,2,2,0,0,0,.35-.49c.09-.19.18-.4.28-.64l.58-1.5Z"/><path d="M696,58.85a2.58,2.58,0,0,0-.79-.67,2.25,2.25,0,0,0-1.15-.27,2.23,2.23,0,0,0-1.11.27.86.86,0,0,0-.47.79.9.9,0,0,0,.27.68,2.37,2.37,0,0,0,.64.42,3.45,3.45,0,0,0,.79.24l.72.14a8.19,8.19,0,0,1,1.09.34,3.06,3.06,0,0,1,.88.52,2.16,2.16,0,0,1,.58.78,2.7,2.7,0,0,1,.21,1.12,2.6,2.6,0,0,1-.34,1.37,2.8,2.8,0,0,1-.88.93,3.77,3.77,0,0,1-1.23.52,5.93,5.93,0,0,1-1.39.16,5.51,5.51,0,0,1-2.07-.36,3.76,3.76,0,0,1-1.59-1.32l1.36-1.12a6.22,6.22,0,0,0,1,.78,2.4,2.4,0,0,0,1.32.34,3.23,3.23,0,0,0,.69-.07,2.27,2.27,0,0,0,.62-.22,1.36,1.36,0,0,0,.44-.38.82.82,0,0,0,.17-.53.89.89,0,0,0-.25-.66,1.94,1.94,0,0,0-.6-.41,4.27,4.27,0,0,0-.74-.24l-.69-.15a11,11,0,0,1-1.1-.32,3.49,3.49,0,0,1-.92-.48,2.26,2.26,0,0,1-.64-.76,2.46,2.46,0,0,1-.24-1.14,2.57,2.57,0,0,1,.31-1.29,2.76,2.76,0,0,1,.82-.91,3.74,3.74,0,0,1,1.16-.54,4.87,4.87,0,0,1,3.15.18,2.87,2.87,0,0,1,1.4,1.2Z"/><path d="M711.33,58h-2.58v4.3c0,.27,0,.53,0,.79a1.94,1.94,0,0,0,.15.7,1.09,1.09,0,0,0,.4.5,1.34,1.34,0,0,0,.79.19,3.85,3.85,0,0,0,.66-.06,1.91,1.91,0,0,0,.62-.22v1.64a2.47,2.47,0,0,1-.83.25,5.74,5.74,0,0,1-.79.07,3.65,3.65,0,0,1-1.61-.29,1.94,1.94,0,0,1-.84-.75,2.39,2.39,0,0,1-.32-1A10.94,10.94,0,0,1,707,63V58h-2.08V56.47H707V53.81h1.8v2.66h2.58Z"/><path d="M721.4,61.87a2.39,2.39,0,0,0,.27,1.13,2.86,2.86,0,0,0,.71.87,3.37,3.37,0,0,0,1,.56,3.78,3.78,0,0,0,1.2.2,2.68,2.68,0,0,0,1.46-.39,4.41,4.41,0,0,0,1.14-1l1.36,1a5,5,0,0,1-4.2,1.94,5.32,5.32,0,0,1-2-.38,4.39,4.39,0,0,1-1.54-1,4.71,4.71,0,0,1-1-1.58,5.74,5.74,0,0,1-.34-2,5.31,5.31,0,0,1,.37-2,5,5,0,0,1,1-1.58,4.62,4.62,0,0,1,1.55-1,5.07,5.07,0,0,1,2-.38,4.73,4.73,0,0,1,2.13.44,4.18,4.18,0,0,1,1.43,1.15,4.33,4.33,0,0,1,.81,1.6,6.53,6.53,0,0,1,.25,1.81v.64Zm5.68-1.44a3.47,3.47,0,0,0-.19-1.1,2.38,2.38,0,0,0-.51-.87,2.26,2.26,0,0,0-.85-.58,3.09,3.09,0,0,0-1.19-.21,2.85,2.85,0,0,0-1.21.25,3.11,3.11,0,0,0-.93.65,3.07,3.07,0,0,0-.59.89,2.46,2.46,0,0,0-.21,1Z"/><path d="M737.56,56.47h1.68V58h0a1.54,1.54,0,0,1,.31-.5,3.28,3.28,0,0,1,.64-.57,4.16,4.16,0,0,1,.92-.46,3.34,3.34,0,0,1,1.17-.19,3.38,3.38,0,0,1,1.78.44A3.25,3.25,0,0,1,745.28,58a3,3,0,0,1,1.3-1.32,3.68,3.68,0,0,1,1.7-.44,4,4,0,0,1,1.8.36,2.93,2.93,0,0,1,1.1.95,3.55,3.55,0,0,1,.55,1.34,7.91,7.91,0,0,1,.15,1.55V66h-1.8V60.67a7,7,0,0,0-.07-1,2.4,2.4,0,0,0-.29-.88,1.65,1.65,0,0,0-.62-.61,2.16,2.16,0,0,0-1.06-.23,2.11,2.11,0,0,0-1.86.8,3.53,3.53,0,0,0-.56,2.06V66h-1.8V61a9.44,9.44,0,0,0-.07-1.24,3,3,0,0,0-.28-1,1.54,1.54,0,0,0-.6-.64,2.1,2.1,0,0,0-1-.23,2.29,2.29,0,0,0-1.72.76,2.67,2.67,0,0,0-.54,1,4.43,4.43,0,0,0-.2,1.39V66h-1.8Z"/></g></svg>